<svg xmlns="http://www.w3.org/2000/svg" viewBox="0 0 400 300">
  <defs>
    <linearGradient id="bg23" x1="0" y1="0" x2="0" y2="1">
      <stop offset="0" stop-color="#FFF6EC"/><stop offset="1" stop-color="#FBE6CE"/>
    </linearGradient>
  </defs>
  <rect width="400" height="300" fill="url(#bg23)"/>
  <ellipse cx="200" cy="250" rx="120" ry="22" fill="#E8E2D8"/>
  <ellipse cx="200" cy="245" rx="110" ry="18" fill="#FBF6EC"/>
  <ellipse cx="200" cy="245" rx="40" ry="6" fill="#E8E2D8"/>
  <path d="M120 175 L130 240 Q130 250 145 250 L255 250 Q270 250 270 240 L280 175 Z" fill="#FBF6EC"/>
  <ellipse cx="200" cy="175" rx="80" ry="18" fill="#E8E2D8"/>
  <ellipse cx="200" cy="173" rx="76" ry="14" fill="#5C3010"/>
  <ellipse cx="200" cy="170" rx="76" ry="14" fill="#D9A06A"/>
  <ellipse cx="200" cy="168" rx="70" ry="11" fill="#FBF6EC"/>
  <path d="M195 165 q-6 -8 -12 -2 q-6 8 12 18 q18 -10 12 -18 q-6 -6 -12 2 Z" fill="#D9A06A"/>
  <circle cx="170" cy="160" r="1.5" fill="#3A1A05"/>
  <circle cx="185" cy="158" r="1.5" fill="#3A1A05"/>
  <circle cx="215" cy="158" r="1.5" fill="#3A1A05"/>
  <circle cx="230" cy="160" r="1.5" fill="#3A1A05"/>
  <circle cx="200" cy="155" r="1.5" fill="#3A1A05"/>
  <path d="M280 195 Q310 195 310 215 Q310 235 280 235" stroke="#FBF6EC" stroke-width="8" fill="none"/>
  <path d="M280 200 Q302 200 302 215 Q302 230 280 230" stroke="#E8E2D8" stroke-width="3" fill="none"/>
  <path d="M180 140 Q175 120 185 100 Q195 80 180 60" stroke="#FFFFFF" stroke-width="3" fill="none" opacity="0.7"/>
  <path d="M210 145 Q205 125 215 105 Q225 85 210 65" stroke="#FFFFFF" stroke-width="3" fill="none" opacity="0.6"/>
  <path d="M225 140 Q220 120 230 100" stroke="#FFFFFF" stroke-width="2" fill="none" opacity="0.5"/>
</svg>
