<svg xmlns="http://www.w3.org/2000/svg" viewBox="0 0 400 300">
  <defs>
    <linearGradient id="bg14" x1="0" y1="0" x2="0" y2="1">
      <stop offset="0" stop-color="#FFF6EC"/><stop offset="1" stop-color="#FBE6CE"/>
    </linearGradient>
    <radialGradient id="sauce14" cx="0.5" cy="0.4" r="0.7">
      <stop offset="0" stop-color="#5A2A0A"/><stop offset="1" stop-color="#2A1004"/>
    </radialGradient>
  </defs>
  <rect width="400" height="300" fill="url(#bg14)"/>
  <ellipse cx="200" cy="260" rx="140" ry="16" fill="#000" opacity="0.08"/>
  <path d="M70 180 Q200 275 330 180 L325 200 Q200 290 75 200 Z" fill="#2A2A2A"/>
  <ellipse cx="200" cy="180" rx="130" ry="30" fill="#1A1A1A"/>
  <ellipse cx="200" cy="178" rx="120" ry="24" fill="url(#sauce14)"/>
  <rect x="135" y="160" width="30" height="24" rx="3" fill="#FBF1D6" transform="rotate(-10 150 172)"/>
  <rect x="190" y="165" width="28" height="22" rx="3" fill="#F5E3B5" transform="rotate(8 204 176)"/>
  <rect x="240" y="162" width="28" height="22" rx="3" fill="#FBF1D6" transform="rotate(-6 254 173)"/>
  <rect x="140" y="162" width="20" height="6" rx="2" fill="#3A1A05" opacity="0.5" transform="rotate(-10 150 165)"/>
  <rect x="195" y="167" width="18" height="5" rx="2" fill="#3A1A05" opacity="0.5" transform="rotate(8 204 170)"/>
  <path d="M170 178 l-5 -8 l5 -2 l5 2 l-5 8 z" fill="#C9311A"/>
  <path d="M220 178 l-5 -8 l5 -2 l5 2 l-5 8 z" fill="#1F7A2E"/>
  <path d="M260 178 l-5 -8 l5 -2 l5 2 l-5 8 z" fill="#C9311A"/>
  <ellipse cx="160" cy="180" rx="5" ry="3" fill="#FBF8E8" opacity="0.9"/>
  <ellipse cx="225" cy="175" rx="5" ry="3" fill="#FBF8E8" opacity="0.9"/>
  <ellipse cx="255" cy="180" rx="5" ry="3" fill="#FBF8E8" opacity="0.9"/>
  <ellipse cx="175" cy="160" rx="2" ry="1" fill="#FBF6E0"/>
  <ellipse cx="205" cy="155" rx="2" ry="1" fill="#FBF6E0"/>
  <ellipse cx="245" cy="158" rx="2" ry="1" fill="#FBF6E0"/>
  <ellipse cx="185" cy="180" rx="2" ry="1" fill="#FBF6E0"/>
  <ellipse cx="215" cy="190" rx="2" ry="1" fill="#FBF6E0"/>
  <ellipse cx="200" cy="190" rx="50" ry="4" fill="#8B5A2B" opacity="0.4"/>
  <ellipse cx="200" cy="180" rx="130" ry="30" fill="none" stroke="#3A3A3A" stroke-width="2" opacity="0.6"/>
</svg>
