<svg xmlns="http://www.w3.org/2000/svg" viewBox="0 0 400 300">
  <defs>
    <linearGradient id="bg25" x1="0" y1="0" x2="0" y2="1">
      <stop offset="0" stop-color="#FFF6EC"/><stop offset="1" stop-color="#FBE6CE"/>
    </linearGradient>
    <linearGradient id="croi25" x1="0" y1="0" x2="0" y2="1">
      <stop offset="0" stop-color="#E8B055"/><stop offset="1" stop-color="#9A6420"/>
    </linearGradient>
  </defs>
  <rect width="400" height="300" fill="url(#bg25)"/>
  <ellipse cx="200" cy="245" rx="160" ry="22" fill="#F4E0B5"/>
  <ellipse cx="200" cy="240" rx="150" ry="16" fill="#FBF0D0"/>
  <ellipse cx="200" cy="240" rx="150" ry="16" fill="none" stroke="#E0C282" stroke-width="2"/>
  <path d="M90 220 Q60 130 180 100 Q260 90 300 140 Q280 160 250 145 Q220 130 190 145 Q160 165 150 195 Q140 220 110 225 Q95 225 90 220 Z" fill="url(#croi25)"/>
  <path d="M110 200 Q140 170 180 160" stroke="#7A4318" stroke-width="2" fill="none" opacity="0.7"/>
  <path d="M120 210 Q150 180 195 165" stroke="#7A4318" stroke-width="2" fill="none" opacity="0.7"/>
  <path d="M130 218 Q165 188 215 170" stroke="#7A4318" stroke-width="2" fill="none" opacity="0.7"/>
  <path d="M145 222 Q180 198 230 178" stroke="#7A4318" stroke-width="2" fill="none" opacity="0.6"/>
  <path d="M160 220 Q200 195 245 175" stroke="#7A4318" stroke-width="2" fill="none" opacity="0.6"/>
  <path d="M180 215 Q220 195 260 168" stroke="#7A4318" stroke-width="2" fill="none" opacity="0.5"/>
  <path d="M105 180 Q140 145 175 130" stroke="#F5D080" stroke-width="3" fill="none" opacity="0.6"/>
  <path d="M195 110 Q235 110 270 130" stroke="#F5D080" stroke-width="3" fill="none" opacity="0.5"/>
  <ellipse cx="100" cy="215" rx="6" ry="3" fill="#5C2A08" opacity="0.5"/>
  <ellipse cx="160" cy="180" rx="4" ry="2" fill="#5C2A08" opacity="0.5"/>
  <ellipse cx="280" cy="135" rx="5" ry="3" fill="#5C2A08" opacity="0.5"/>
  <circle cx="80" cy="245" r="2" fill="#9A6420"/>
  <circle cx="95" cy="248" r="1.5" fill="#9A6420"/>
  <circle cx="110" cy="246" r="1.5" fill="#9A6420"/>
  <circle cx="295" cy="245" r="2" fill="#9A6420"/>
  <circle cx="310" cy="248" r="1.5" fill="#9A6420"/>
  <circle cx="320" cy="245" r="1.5" fill="#9A6420"/>
</svg>
