<svg xmlns="http://www.w3.org/2000/svg" viewBox="0 0 400 300">
  <defs>
    <linearGradient id="bg3" x1="0" y1="0" x2="0" y2="1">
      <stop offset="0" stop-color="#FFF6EC"/><stop offset="1" stop-color="#FBE6CE"/>
    </linearGradient>
    <radialGradient id="dal3" cx="0.5" cy="0.4" r="0.7">
      <stop offset="0" stop-color="#6B3416"/><stop offset="1" stop-color="#3D1A0A"/>
    </radialGradient>
  </defs>
  <rect width="400" height="300" fill="url(#bg3)"/>
  <ellipse cx="200" cy="250" rx="140" ry="18" fill="#000" opacity="0.08"/>
  <path d="M70 175 Q200 270 330 175 L320 200 Q200 290 80 200 Z" fill="#1A1A1A"/>
  <ellipse cx="200" cy="175" rx="130" ry="32" fill="#0A0A0A"/>
  <ellipse cx="200" cy="172" rx="120" ry="26" fill="url(#dal3)"/>
  <ellipse cx="180" cy="178" rx="30" ry="6" fill="#D49A4A" opacity="0.4"/>
  <path d="M195 168 Q225 158 232 175 Q222 188 205 180 Q190 174 195 168 Z" fill="#F5E0B0"/>
  <path d="M198 170 q10 -3 17 1 q5 5 -2 8 q-8 3 -12 -3" fill="none" stroke="#FFF8DC" stroke-width="2"/>
  <ellipse cx="160" cy="172" rx="8" ry="4" fill="#F5D75A" opacity="0.9"/>
  <ellipse cx="240" cy="180" rx="6" ry="3" fill="#F5D75A" opacity="0.9"/>
  <ellipse cx="200" cy="175" rx="130" ry="32" fill="none" stroke="#3A3A3A" stroke-width="2" opacity="0.6"/>
</svg>
