<svg xmlns="http://www.w3.org/2000/svg" viewBox="0 0 400 300">
  <defs>
    <linearGradient id="bg7" x1="0" y1="0" x2="0" y2="1">
      <stop offset="0" stop-color="#FFF6EC"/><stop offset="1" stop-color="#FBE6CE"/>
    </linearGradient>
    <linearGradient id="lassi7" x1="0" y1="0" x2="0" y2="1">
      <stop offset="0" stop-color="#FBEFC0"/><stop offset="1" stop-color="#F0D766"/>
    </linearGradient>
  </defs>
  <rect width="400" height="300" fill="url(#bg7)"/>
  <ellipse cx="200" cy="275" rx="90" ry="12" fill="#000" opacity="0.08"/>
  <path d="M150 70 L150 250 Q150 270 175 270 L225 270 Q250 270 250 250 L250 70 Z" fill="#E8F4F5" opacity="0.5" stroke="#9CBABC" stroke-width="2"/>
  <path d="M154 130 L154 248 Q154 264 174 264 L226 264 Q246 264 246 248 L246 130 Z" fill="url(#lassi7)"/>
  <ellipse cx="200" cy="135" rx="46" ry="8" fill="#FFF8DC"/>
  <ellipse cx="200" cy="125" rx="48" ry="12" fill="#FFFCEA"/>
  <ellipse cx="180" cy="118" rx="10" ry="5" fill="#FFFCEA"/>
  <ellipse cx="210" cy="115" rx="12" ry="6" fill="#FFFCEA"/>
  <ellipse cx="225" cy="122" rx="8" ry="4" fill="#FFFCEA"/>
  <line x1="155" y1="80" x2="155" y2="240" stroke="#FFFFFF" stroke-width="3" opacity="0.6"/>
  <path d="M205 105 q12 -8 22 -2 q-2 12 -14 12 q-8 0 -8 -10 Z" fill="#3E8E3E"/>
  <line x1="208" y1="113" x2="204" y2="120" stroke="#2E6E2E" stroke-width="1.5"/>
</svg>
