<svg xmlns="http://www.w3.org/2000/svg" viewBox="0 0 400 300">
  <defs>
    <linearGradient id="bg16" x1="0" y1="0" x2="0" y2="1">
      <stop offset="0" stop-color="#FFF6EC"/><stop offset="1" stop-color="#FBE6CE"/>
    </linearGradient>
    <radialGradient id="sauce16" cx="0.5" cy="0.4" r="0.7">
      <stop offset="0" stop-color="#8B2A0A"/><stop offset="1" stop-color="#3D1004"/>
    </radialGradient>
  </defs>
  <rect width="400" height="300" fill="url(#bg16)"/>
  <ellipse cx="200" cy="260" rx="140" ry="16" fill="#000" opacity="0.08"/>
  <path d="M70 180 Q200 275 330 180 L325 200 Q200 290 75 200 Z" fill="#3A2410"/>
  <ellipse cx="200" cy="180" rx="130" ry="30" fill="#2A1808"/>
  <ellipse cx="200" cy="178" rx="120" ry="24" fill="url(#sauce16)"/>
  <circle cx="145" cy="165" r="22" fill="#F5E8C0"/>
  <circle cx="138" cy="158" r="8" fill="#FBF1D0"/>
  <circle cx="150" cy="170" r="7" fill="#FBF1D0"/>
  <circle cx="155" cy="160" r="6" fill="#FBF1D0"/>
  <circle cx="200" cy="160" r="24" fill="#F0DFB0"/>
  <circle cx="193" cy="153" r="9" fill="#FBF1D0"/>
  <circle cx="207" cy="167" r="8" fill="#FBF1D0"/>
  <circle cx="210" cy="155" r="6" fill="#FBF1D0"/>
  <circle cx="255" cy="165" r="22" fill="#F5E8C0"/>
  <circle cx="248" cy="158" r="8" fill="#FBF1D0"/>
  <circle cx="260" cy="170" r="7" fill="#FBF1D0"/>
  <circle cx="265" cy="160" r="6" fill="#FBF1D0"/>
  <path d="M125 175 Q145 185 165 175 L160 178 Q145 188 130 178 Z" fill="#5A1A05" opacity="0.7"/>
  <path d="M180 170 Q200 180 220 170 L215 173 Q200 183 185 173 Z" fill="#5A1A05" opacity="0.7"/>
  <path d="M235 175 Q255 185 275 175 L270 178 Q255 188 240 178 Z" fill="#5A1A05" opacity="0.7"/>
  <circle cx="170" cy="155" r="2" fill="#1F7A2E"/>
  <circle cx="175" cy="150" r="2" fill="#3E8E3E"/>
  <circle cx="220" cy="148" r="2" fill="#3E8E3E"/>
  <circle cx="225" cy="152" r="2" fill="#1F7A2E"/>
  <circle cx="240" cy="155" r="2" fill="#3E8E3E"/>
  <ellipse cx="200" cy="190" rx="60" ry="3" fill="#E08020" opacity="0.4"/>
  <ellipse cx="200" cy="180" rx="130" ry="30" fill="none" stroke="#7A4318" stroke-width="2" opacity="0.5"/>
</svg>
